<svg width="23" height="33" viewBox="0 0 23 33" fill="none" xmlns="http://www.w3.org/2000/svg">
<path fill-rule="evenodd" clip-rule="evenodd" d="M6.72 0.704102C3.45734 0.704102 0.833337 3.44143 0.833337 6.79477C0.833337 8.83344 1.804 10.6441 3.296 11.7494C2.52704 12.3256 1.90375 13.0738 1.47609 13.9342C1.04843 14.7946 0.828295 15.7433 0.833337 16.7041C0.833337 18.7441 1.804 20.5534 3.296 21.6588C2.52704 22.2349 1.90375 22.9831 1.47609 23.8436C1.04843 24.704 0.828295 25.6526 0.833337 26.6134C0.833337 29.9668 3.45734 32.7041 6.72 32.7041C9.98134 32.7041 12.6067 29.9668 12.6067 26.6134V21.4641C13.6378 22.3238 14.9375 22.7951 16.28 22.7961C19.5427 22.7948 22.1667 20.0574 22.1667 16.7041C22.172 15.7432 21.952 14.7945 21.5243 13.934C21.0967 13.0735 20.4732 12.3253 19.704 11.7494C20.473 11.1733 21.0963 10.4251 21.5239 9.56465C21.9516 8.70423 22.1717 7.75559 22.1667 6.79477C22.1667 3.44143 19.5427 0.704102 16.28 0.704102H6.72ZM3.04534 6.79477C3.04534 4.67343 4.70134 2.97477 6.72 2.97477H10.3933V10.6148H6.72C4.70134 10.6148 3.04534 8.91477 3.04534 6.79477ZM16.28 10.6134H12.6067V2.97343H16.28C18.3 2.97343 19.9547 4.67343 19.9547 6.79477C19.9547 8.91477 18.3 10.6134 16.28 10.6134ZM3.04667 16.7041C3.04667 14.5841 4.70267 12.8841 6.72134 12.8841H10.3947V20.5241H6.72C4.7 20.5241 3.04534 18.8241 3.04534 16.7041H3.04667ZM12.6067 16.7041C12.6067 14.5841 14.2627 12.8841 16.2813 12.8841C18.3013 12.8841 19.956 14.5828 19.956 16.7041C19.956 18.8241 18.3013 20.5241 16.2813 20.5241C14.2627 20.5241 12.608 18.8254 12.608 16.7041H12.6067ZM3.04667 26.6134C3.04667 24.4934 4.70267 22.7948 6.72134 22.7948H10.3947V26.6134C10.3947 28.7348 8.74134 30.4334 6.72134 30.4334C4.70267 30.4334 3.04667 28.7348 3.04667 26.6134Z" fill="#F0E3CA"/>
</svg>
