<svg width="33" height="32" viewBox="0 0 33 32" fill="none" xmlns="http://www.w3.org/2000/svg">
<path d="M16.5 0.100121C7.661 0.100121 0.5 7.26712 0.5 16.1001C0.5 23.1732 5.084 29.1681 11.437 31.2831C12.24 31.4341 12.53 30.9391 12.53 30.5111C12.53 30.1311 12.521 29.1261 12.515 27.7921C8.062 28.7561 7.124 25.6411 7.124 25.6411C6.395 23.7972 5.343 23.3021 5.343 23.3021C3.895 22.3131 5.458 22.3341 5.458 22.3341C7.062 22.4431 7.906 23.9791 7.906 23.9791C9.33299 26.4271 11.65 25.7191 12.567 25.3071C12.707 24.2761 13.124 23.5671 13.578 23.1721C10.026 22.7711 6.291 21.3961 6.291 15.2651C6.291 13.5141 6.911 12.0881 7.936 10.9681C7.759 10.5671 7.217 8.93712 8.077 6.73312C8.077 6.73312 9.41604 6.30612 12.477 8.37414C13.7809 8.01948 15.1258 7.83761 16.477 7.83312C17.837 7.84211 19.196 8.02009 20.477 8.37414C23.52 6.30612 24.858 6.73312 24.858 6.73312C25.717 8.93712 25.175 10.5661 25.019 10.9681C26.034 12.0881 26.654 13.5151 26.654 15.2651C26.654 21.4101 22.914 22.7652 19.358 23.1561C19.914 23.6351 20.435 24.6201 20.435 26.1151C20.435 28.2551 20.415 29.9791 20.415 30.5001C20.415 30.9161 20.695 31.4161 21.519 31.2551C27.919 29.1621 32.498 23.1621 32.498 16.0991C32.498 7.26612 25.337 0.0991211 16.498 0.0991211L16.5 0.100121Z" fill="#F0E3CA"/>
</svg>
