<svg width="27" height="28" viewBox="0 0 27 28" fill="none" xmlns="http://www.w3.org/2000/svg">
<path d="M24.1667 27.0374H2.83335C2.12611 27.0374 1.44783 26.7564 0.947738 26.2564C0.447639 25.7563 0.166687 25.0779 0.166687 24.3708V9.76938C0.188851 9.32869 0.31839 8.90005 0.544036 8.52077C0.769681 8.14149 1.08458 7.82317 1.46135 7.59338L12.128 1.19341C12.5423 0.944997 13.0163 0.813782 13.4993 0.813782C13.9824 0.813782 14.4564 0.944997 14.8707 1.19341L25.5374 7.59338C26.3386 8.07742 26.8307 8.94408 26.8334 9.88008V24.3708C26.8334 25.0779 26.5524 25.7563 26.0523 26.2564C25.5522 26.7564 24.874 27.0374 24.1667 27.0374ZM2.83335 10.8614V24.3708H24.1667V10.8614L13.5 17.972L2.83335 10.8614ZM13.5 3.48007L4.58802 8.82675L13.5 14.7681L22.4107 8.82675L13.5 3.48007Z" fill="#F0E3CA"/>
</svg>
