<svg width="70" height="10" viewBox="0 0 70 10" fill="none" xmlns="http://www.w3.org/2000/svg">
<path d="M3.43 9.34416C2.86067 9.34416 2.338 9.2555 1.862 9.07816C1.39533 8.8915 0.989333 8.62083 0.644 8.26616L1.246 7.24416L1.302 7.11816L1.4 7.17416C1.41867 7.2395 1.442 7.31416 1.47 7.39816C1.50733 7.47283 1.57733 7.56616 1.68 7.67816C1.92267 7.87416 2.198 8.03283 2.506 8.15416C2.814 8.26616 3.15933 8.32216 3.542 8.32216C3.794 8.32216 4.02267 8.2895 4.228 8.22416C4.43333 8.1495 4.61067 8.0515 4.76 7.93016C4.91867 7.80883 5.04 7.66416 5.124 7.49616C5.208 7.32816 5.25 7.14616 5.25 6.95016C5.25 6.80083 5.23133 6.6655 5.194 6.54416C5.166 6.42283 5.11 6.31083 5.026 6.20816C4.942 6.1055 4.83 6.00283 4.69 5.90016C4.55 5.7975 4.368 5.6855 4.144 5.56416C3.92 5.44283 3.64933 5.31216 3.332 5.17216C2.73467 4.9295 2.25867 4.67283 1.904 4.40216C1.55867 4.1315 1.31133 3.84216 1.162 3.53416C1.01267 3.22616 0.938 2.89483 0.938 2.54016C0.938 2.11083 1.05 1.73283 1.274 1.40616C1.498 1.0795 1.81067 0.822829 2.212 0.636162C2.62267 0.449495 3.09867 0.356162 3.64 0.356162C3.976 0.356162 4.29333 0.402829 4.592 0.496162C4.9 0.580162 5.18467 0.701496 5.446 0.860162C5.70733 1.01883 5.94067 1.2195 6.146 1.46216L5.474 2.30216L5.39 2.41416L5.292 2.34416C5.28267 2.2695 5.264 2.19483 5.236 2.12016C5.208 2.0455 5.14267 1.95216 5.04 1.84016C4.83467 1.64416 4.61533 1.5135 4.382 1.44816C4.14867 1.3735 3.86867 1.33616 3.542 1.33616C3.32733 1.33616 3.13133 1.36416 2.954 1.42016C2.786 1.47616 2.64133 1.56016 2.52 1.67216C2.39867 1.78416 2.30067 1.91016 2.226 2.05016C2.16067 2.18083 2.128 2.32083 2.128 2.47016C2.128 2.6195 2.14667 2.75483 2.184 2.87616C2.22133 2.98816 2.282 3.10016 2.366 3.21216C2.45 3.32416 2.56667 3.44083 2.716 3.56216C2.87467 3.67416 3.07067 3.79083 3.304 3.91216C3.54667 4.02416 3.836 4.15016 4.172 4.29016C4.61067 4.47683 4.97467 4.65883 5.264 4.83616C5.55333 5.0135 5.77733 5.20483 5.936 5.41016C6.104 5.60616 6.22533 5.82083 6.3 6.05416C6.37467 6.27816 6.412 6.53483 6.412 6.82416C6.412 7.2255 6.30933 7.62216 6.104 8.01416C5.89867 8.40616 5.57667 8.72816 5.138 8.98016C4.69933 9.22283 4.13 9.34416 3.43 9.34416ZM10.808 9.34416C10.3413 9.34416 9.912 9.27416 9.52 9.13416C9.13733 8.98483 8.80133 8.77016 8.512 8.49016C8.232 8.21016 8.01733 7.86016 7.868 7.44016C7.71867 7.02016 7.644 6.54416 7.644 6.01216C7.644 5.47083 7.71867 4.99016 7.868 4.57016C8.02667 4.15016 8.24133 3.7955 8.512 3.50616C8.78267 3.21683 9.1 2.9975 9.464 2.84816C9.828 2.6895 10.2153 2.61016 10.626 2.61016C10.99 2.61016 11.3353 2.6755 11.662 2.80616C11.9887 2.9275 12.2687 3.11416 12.502 3.36616C12.7447 3.61816 12.936 3.94016 13.076 4.33216C13.216 4.71483 13.286 5.1675 13.286 5.69016C13.286 5.77416 13.2813 5.8675 13.272 5.97016C13.272 6.0635 13.2673 6.1475 13.258 6.22216H8.792C8.81067 6.60483 8.876 6.93616 8.988 7.21616C9.10933 7.48683 9.26333 7.71083 9.45 7.88816C9.63667 8.05616 9.84667 8.18216 10.08 8.26616C10.3227 8.35016 10.5793 8.39216 10.85 8.39216C11.0647 8.39216 11.2653 8.36883 11.452 8.32216C11.648 8.2755 11.83 8.20083 11.998 8.09816C12.166 7.9955 12.32 7.8695 12.46 7.72016L13.104 8.33616C12.9173 8.56016 12.7027 8.7515 12.46 8.91016C12.2267 9.0595 11.97 9.16683 11.69 9.23216C11.4193 9.30683 11.1253 9.34416 10.808 9.34416ZM8.834 5.31216H12.096C12.096 5.03216 12.0587 4.78483 11.984 4.57016C11.9093 4.3555 11.8067 4.16883 11.676 4.01016C11.5453 3.8515 11.382 3.73483 11.186 3.66016C10.9993 3.57616 10.7893 3.53416 10.556 3.53416C10.3413 3.53416 10.1407 3.5715 9.954 3.64616C9.76733 3.7115 9.59467 3.81883 9.436 3.96816C9.28667 4.1175 9.156 4.30416 9.044 4.52816C8.94133 4.74283 8.87133 5.00416 8.834 5.31216ZM17.808 9.34416C17.3413 9.34416 16.912 9.27416 16.52 9.13416C16.1373 8.98483 15.8013 8.77016 15.512 8.49016C15.232 8.21016 15.0173 7.86016 14.868 7.44016C14.7187 7.02016 14.644 6.54416 14.644 6.01216C14.644 5.47083 14.7187 4.99016 14.868 4.57016C15.0267 4.15016 15.2413 3.7955 15.512 3.50616C15.7827 3.21683 16.1 2.9975 16.464 2.84816C16.828 2.6895 17.2153 2.61016 17.626 2.61016C17.99 2.61016 18.3353 2.6755 18.662 2.80616C18.9887 2.9275 19.2687 3.11416 19.502 3.36616C19.7447 3.61816 19.936 3.94016 20.076 4.33216C20.216 4.71483 20.286 5.1675 20.286 5.69016C20.286 5.77416 20.2813 5.8675 20.272 5.97016C20.272 6.0635 20.2673 6.1475 20.258 6.22216H15.792C15.8107 6.60483 15.876 6.93616 15.988 7.21616C16.1093 7.48683 16.2633 7.71083 16.45 7.88816C16.6367 8.05616 16.8467 8.18216 17.08 8.26616C17.3227 8.35016 17.5793 8.39216 17.85 8.39216C18.0647 8.39216 18.2653 8.36883 18.452 8.32216C18.648 8.2755 18.83 8.20083 18.998 8.09816C19.166 7.9955 19.32 7.8695 19.46 7.72016L20.104 8.33616C19.9173 8.56016 19.7027 8.7515 19.46 8.91016C19.2267 9.0595 18.97 9.16683 18.69 9.23216C18.4193 9.30683 18.1253 9.34416 17.808 9.34416ZM15.834 5.31216H19.096C19.096 5.03216 19.0587 4.78483 18.984 4.57016C18.9093 4.3555 18.8067 4.16883 18.676 4.01016C18.5453 3.8515 18.382 3.73483 18.186 3.66016C17.9993 3.57616 17.7893 3.53416 17.556 3.53416C17.3413 3.53416 17.1407 3.5715 16.954 3.64616C16.7673 3.7115 16.5947 3.81883 16.436 3.96816C16.2867 4.1175 16.156 4.30416 16.044 4.52816C15.9413 4.74283 15.8713 5.00416 15.834 5.31216ZM28.49 9.20416V2.76416H29.554V3.35216C29.6567 3.1935 29.7733 3.06283 29.904 2.96016C30.0347 2.84816 30.1747 2.76416 30.324 2.70816C30.4827 2.64283 30.6413 2.61016 30.8 2.61016C30.9773 2.61016 31.1407 2.6475 31.29 2.72216C31.4487 2.7875 31.5793 2.89016 31.682 3.03016C31.794 3.16083 31.8733 3.3195 31.92 3.50616C32.0133 3.3195 32.13 3.16083 32.27 3.03016C32.41 2.8995 32.5733 2.79683 32.76 2.72216C32.9467 2.6475 33.1427 2.61016 33.348 2.61016C33.572 2.61016 33.7633 2.65216 33.922 2.73616C34.0807 2.82016 34.2113 2.93683 34.314 3.08616C34.426 3.2355 34.5053 3.4175 34.552 3.63216C34.5987 3.84683 34.6173 4.08016 34.608 4.33216V9.20416H33.53V4.69616C33.53 4.3415 33.5067 4.08016 33.46 3.91216C33.4227 3.73483 33.362 3.62283 33.278 3.57616C33.2033 3.52016 33.11 3.49216 32.998 3.49216C32.8393 3.49216 32.69 3.56683 32.55 3.71616C32.41 3.85616 32.2933 4.04283 32.2 4.27616C32.116 4.50016 32.074 4.73816 32.074 4.99016V9.20416H31.024V4.76616C31.024 4.26216 30.9773 3.92616 30.884 3.75816C30.8 3.59016 30.6413 3.50616 30.408 3.50616C30.3053 3.50616 30.2027 3.53883 30.1 3.60416C30.0067 3.6695 29.918 3.76283 29.834 3.88416C29.7593 3.99616 29.694 4.1455 29.638 4.33216C29.5913 4.5095 29.568 4.71016 29.568 4.93416V9.20416H28.49ZM38.5 9.33016C37.9213 9.33016 37.4033 9.19016 36.946 8.91016C36.498 8.62083 36.1433 8.22416 35.882 7.72016C35.6207 7.21616 35.49 6.6375 35.49 5.98416C35.49 5.33083 35.6207 4.75216 35.882 4.24816C36.1433 3.74416 36.498 3.3475 36.946 3.05816C37.4033 2.76883 37.9213 2.62416 38.5 2.62416C39.0787 2.62416 39.592 2.76883 40.04 3.05816C40.4973 3.3475 40.8567 3.74416 41.118 4.24816C41.3793 4.75216 41.51 5.33083 41.51 5.98416C41.51 6.6375 41.3793 7.21616 41.118 7.72016C40.8567 8.22416 40.4973 8.62083 40.04 8.91016C39.592 9.19016 39.0787 9.33016 38.5 9.33016ZM38.5 8.35016C38.8453 8.35016 39.1487 8.2475 39.41 8.04216C39.6713 7.83683 39.8767 7.55683 40.026 7.20216C40.1847 6.8475 40.264 6.43683 40.264 5.97016C40.264 5.5035 40.1847 5.09283 40.026 4.73816C39.8767 4.3835 39.6713 4.10816 39.41 3.91216C39.1487 3.70683 38.8453 3.60416 38.5 3.60416C38.164 3.60416 37.8607 3.70683 37.59 3.91216C37.3287 4.10816 37.1187 4.3835 36.96 4.73816C36.8107 5.09283 36.736 5.5035 36.736 5.97016C36.736 6.43683 36.8107 6.8475 36.96 7.20216C37.1093 7.55683 37.3147 7.83683 37.576 8.04216C37.8467 8.2475 38.1547 8.35016 38.5 8.35016ZM43.526 2.76416H44.772L44.744 4.61216L44.59 4.44416C44.646 4.15483 44.7393 3.89816 44.87 3.67416C45.01 3.45016 45.1733 3.25883 45.36 3.10016C45.556 2.9415 45.7707 2.82016 46.004 2.73616C46.2373 2.65216 46.48 2.61016 46.732 2.61016C47.0773 2.61016 47.39 2.67083 47.67 2.79216C47.9593 2.90416 48.2207 3.0815 48.454 3.32416L47.936 4.29016L47.88 4.41616L47.782 4.36016C47.754 4.2855 47.7213 4.2155 47.684 4.15016C47.656 4.0755 47.5813 3.9915 47.46 3.89816C47.32 3.7955 47.1847 3.7255 47.054 3.68816C46.9233 3.65083 46.774 3.63216 46.606 3.63216C46.382 3.63216 46.158 3.67416 45.934 3.75816C45.71 3.84216 45.5047 3.97283 45.318 4.15016C45.1407 4.3275 45.0007 4.55616 44.898 4.83616C44.7953 5.10683 44.744 5.42883 44.744 5.80216V9.21816H43.526V2.76416ZM52.808 9.34416C52.3413 9.34416 51.912 9.27416 51.52 9.13416C51.1373 8.98483 50.8013 8.77016 50.512 8.49016C50.232 8.21016 50.0173 7.86016 49.868 7.44016C49.7187 7.02016 49.644 6.54416 49.644 6.01216C49.644 5.47083 49.7187 4.99016 49.868 4.57016C50.0267 4.15016 50.2413 3.7955 50.512 3.50616C50.7827 3.21683 51.1 2.9975 51.464 2.84816C51.828 2.6895 52.2153 2.61016 52.626 2.61016C52.99 2.61016 53.3353 2.6755 53.662 2.80616C53.9887 2.9275 54.2687 3.11416 54.502 3.36616C54.7447 3.61816 54.936 3.94016 55.076 4.33216C55.216 4.71483 55.286 5.1675 55.286 5.69016C55.286 5.77416 55.2813 5.8675 55.272 5.97016C55.272 6.0635 55.2673 6.1475 55.258 6.22216H50.792C50.8107 6.60483 50.876 6.93616 50.988 7.21616C51.1093 7.48683 51.2633 7.71083 51.45 7.88816C51.6367 8.05616 51.8467 8.18216 52.08 8.26616C52.3227 8.35016 52.5793 8.39216 52.85 8.39216C53.0647 8.39216 53.2653 8.36883 53.452 8.32216C53.648 8.2755 53.83 8.20083 53.998 8.09816C54.166 7.9955 54.32 7.8695 54.46 7.72016L55.104 8.33616C54.9173 8.56016 54.7027 8.7515 54.46 8.91016C54.2267 9.0595 53.97 9.16683 53.69 9.23216C53.4193 9.30683 53.1253 9.34416 52.808 9.34416ZM50.834 5.31216H54.096C54.096 5.03216 54.0587 4.78483 53.984 4.57016C53.9093 4.3555 53.8067 4.16883 53.676 4.01016C53.5453 3.8515 53.382 3.73483 53.186 3.66016C52.9993 3.57616 52.7893 3.53416 52.556 3.53416C52.3413 3.53416 52.1407 3.5715 51.954 3.64616C51.7673 3.7115 51.5947 3.81883 51.436 3.96816C51.2867 4.1175 51.156 4.30416 51.044 4.52816C50.9413 4.74283 50.8713 5.00416 50.834 5.31216ZM63.21 4.51416H67.564L65.688 3.00216L66.332 2.23216L69.65 4.87816V5.36816L66.318 7.88816L65.688 7.04816L67.55 5.63416H63.21V4.51416Z" fill="#F0E3CA"/>
</svg>
