<svg width="31" height="21" viewBox="0 0 31 21" fill="none" xmlns="http://www.w3.org/2000/svg">
<path d="M18.1667 19.0374H12.8334C10.0044 19.0374 7.29126 17.9136 5.29089 15.9132C3.2905 13.9129 2.16669 11.1997 2.16669 8.37077V1.7041H7.50002V8.37077C7.50002 9.78524 8.06192 11.1418 9.06215 12.142C10.0623 13.1422 11.4189 13.7041 12.8334 13.7041V1.7041H18.1667V7.7041L18.2067 7.69877C19.668 7.51644 21.0125 6.80658 21.9873 5.70265C22.962 4.59873 23.4999 3.17679 23.5 1.7041H28.8334L28.3774 3.9854C28.1042 5.35088 27.5229 6.63591 26.6776 7.7425C25.8324 8.84909 24.7455 9.74806 23.5 10.3708C24.7111 10.7743 25.7915 11.4959 26.628 12.4603C27.4645 13.4246 28.0263 14.5961 28.2547 15.8521L28.8334 19.0374H23.5C23.4999 17.5647 22.962 16.1428 21.9873 15.0389C21.0125 13.935 19.668 13.2251 18.2067 13.0428V19.0428L18.1667 19.0374Z" stroke="#F0E3CA" stroke-width="3" stroke-linecap="round" stroke-linejoin="round"/>
</svg>
